<svg xmlns="http://www.w3.org/2000/svg" width="435.19" height="424.996" viewBox="0 0 435.19 424.996"><defs><style>.a{fill:#fece2f;}.b{fill:#fff;}.c{fill:#4d4d4d;}.d{fill:#333;}.e{fill:#ccc;}.f{fill:#666;}.g{fill:none;}.h{fill:gray;}.i{fill:#999;}.j{fill:#1a1a1a;}.k{fill:#e6e6e6;}.l{fill:#fed85b;}</style></defs><g transform="translate(-44.3 -40.8)"><g transform="translate(70.885 77.762)"><circle class="a" cx="194.017" cy="194.017" r="194.017" transform="translate(0 0)"/></g><circle class="b" cx="49.855" cy="49.855" r="49.855" transform="translate(252.93 40.8)"/><g transform="translate(44.3 62.473)"><circle class="b" cx="79.51" cy="79.51" r="79.51"/></g><g transform="translate(49.457 81.138)"><g transform="translate(65.696 17.744)"><rect class="c" width="32.357" height="32.357"/></g><g transform="translate(33.155 17.744)"><rect class="d" width="32.357" height="32.357"/></g><g transform="translate(0.614 82.273)"><rect class="e" width="32.357" height="32.357"/></g><g transform="translate(98.237 17.744)"><rect class="f" width="32.357" height="32.357"/></g><g transform="translate(0.614 0.614)"><path class="a" d="M183.679,124.691H53.7V112.6a5.083,5.083,0,0,1,5.1-5.1H178.583a5.083,5.083,0,0,1,5.1,5.1v12.1Z" transform="translate(-53.7 -107.5)"/></g><g transform="translate(33.155 17.744)"><rect class="g" width="32.357" height="32.357"/></g><rect class="h" width="32.357" height="32.357" transform="translate(0.614 49.978)"/><rect class="i" width="32.357" height="32.357" transform="translate(33.155 49.978)"/><path class="j" d="M183.846,112.21a5.7,5.7,0,0,0-5.71-5.71H58.41a5.7,5.7,0,0,0-5.71,5.71V221.069a.615.615,0,0,0,.614.614H85.671a.615.615,0,0,0,.614-.614V189.387h31.927a.615.615,0,0,0,.614-.614v-31.62h64.406a.615.615,0,0,0,.614-.614V112.21ZM58.41,107.667H178.2a4.507,4.507,0,0,1,4.482,4.482v11.42H118.4a.369.369,0,0,0-.246.061H85.978a.369.369,0,0,0-.246-.061h-31.8v-11.42A4.507,4.507,0,0,1,58.41,107.667ZM85.118,220.516H53.928V189.449h31.19Zm0-32.357H53.928V157.153h31.19Zm32.479.123H86.407v-31.19H117.6ZM86.285,155.864V124.858h31.5v31.006Zm32.725.123V124.919H150.2v31.129l-31.19-.061Zm32.48,0V124.919h31.19v31.129l-31.19-.061Z" transform="translate(-52.7 -106.5)"/><g transform="translate(5.403 4.789)"><g transform="translate(0)"><path class="j" d="M62.175,122.957a.7.7,0,0,1-.491-.184.747.747,0,0,1,0-.982l7.306-7.306a.695.695,0,0,1,.982.982l-7.306,7.306A.7.7,0,0,1,62.175,122.957Z" transform="translate(-61.5 -114.3)"/></g><path class="j" d="M69.482,122.957a.7.7,0,0,1-.491-.184l-7.306-7.306a.695.695,0,0,1,.982-.982l7.306,7.306a.747.747,0,0,1,0,.982A.7.7,0,0,1,69.482,122.957Z" transform="translate(-61.5 -114.3)"/></g><g transform="translate(115.796 5.894)"><path class="j" d="M245.9,123.1l-4.6-3.5,4.6-3.5Z" transform="translate(-241.3 -116.1)"/><g transform="translate(4.85)"><path class="j" d="M253.8,123.1l-4.6-3.5,4.6-3.5Z" transform="translate(-249.2 -116.1)"/></g></g></g><g transform="translate(418.275 153.956)"><g transform="translate(0.675 0.675)"><path class="k" d="M709.267,505.376H659.6a5.083,5.083,0,0,1-5.1-5.1V231.3a5.083,5.083,0,0,1,5.1-5.1h49.671a5.083,5.083,0,0,1,5.1,5.1V500.342A5.071,5.071,0,0,1,709.267,505.376Z" transform="translate(-654.5 -226.2)"/></g><g transform="translate(0.737 221.217)"><path class="b" d="M654.6,585.4v53.539a5.083,5.083,0,0,0,5.1,5.1h49.671a5.083,5.083,0,0,0,5.1-5.1V585.4Z" transform="translate(-654.6 -585.4)"/></g><g transform="translate(0.675 0.675)"><path class="a" d="M714.363,239.585V231.3a5.083,5.083,0,0,0-5.1-5.1H659.6a5.083,5.083,0,0,0-5.1,5.1v8.289Z" transform="translate(-654.5 -226.2)"/></g><path class="j" d="M708.842,505.627H659.171a5.765,5.765,0,0,1-5.771-5.771V230.871a5.765,5.765,0,0,1,5.771-5.771h49.671a5.765,5.765,0,0,1,5.771,5.771V499.917A5.713,5.713,0,0,1,708.842,505.627Zm-49.61-279.176a4.4,4.4,0,0,0-4.421,4.421V499.917a4.4,4.4,0,0,0,4.421,4.421H708.9a4.4,4.4,0,0,0,4.421-4.421V230.871a4.4,4.4,0,0,0-4.421-4.421Z" transform="translate(-653.4 -225.1)"/><g transform="translate(44.636 4.236)"><path class="j" d="M730.7,239l-4.6-3.5,4.6-3.5Z" transform="translate(-726.1 -232)"/><g transform="translate(4.85)"><path class="j" d="M738.6,239l-4.6-3.5,4.6-3.5Z" transform="translate(-734 -232)"/></g></g><g transform="translate(23.638 243.873)"><path class="j" d="M712.709,628.435v14.674H698.035V628.435h14.674m5.035-5.035H693v24.743h24.743V623.4Z" transform="translate(-692.325 -622.725)"/><path class="k" d="M717.319,648.394H692.575a.681.681,0,0,1-.675-.675V622.975a.681.681,0,0,1,.675-.675h24.743a.681.681,0,0,1,.675.675v24.743A.613.613,0,0,1,717.319,648.394Zm-24.068-1.351h23.393V623.651H693.251Zm19.033-3.684H697.61a.681.681,0,0,1-.675-.675V628.01a.681.681,0,0,1,.675-.675h14.674a.681.681,0,0,1,.675.675v14.674A.644.644,0,0,1,712.284,643.359Zm-14-1.412h13.323V628.624H698.285Z" transform="translate(-691.9 -622.3)"/></g><g transform="translate(12.464 232.637)"><rect class="j" width="24.743" height="24.743"/></g><path class="j" d="M731.039,607.636a.641.641,0,0,0-.921-.246l-.8.43a6.854,6.854,0,0,0-6.14-5.956l.43-.8a.674.674,0,0,0-1.167-.675l-.982,1.781h0c0,.061,0,.061-.061.123v.184h0v.246c0,.061,0,.061.061.123h0l.921,1.719a.675.675,0,0,0,.614.368.46.46,0,0,0,.307-.061.641.641,0,0,0,.246-.921l-.368-.614a5.542,5.542,0,0,1,4.728,4.482l-.614-.368a.674.674,0,1,0-.675,1.167l1.781.982a.779.779,0,0,0,.368.061.46.46,0,0,0,.307-.061l1.719-.921A.8.8,0,0,0,731.039,607.636Z" transform="translate(-679.649 -369.842)"/><g transform="translate(4.85 19.34)"><g transform="translate(0.675 0.675)"><rect class="a" width="50.53" height="193.281"/></g><path class="j" d="M712.506,256.6h-50.53a.681.681,0,0,0-.675.675V450.556a.681.681,0,0,0,.675.675h50.53a.681.681,0,0,0,.675-.675V257.275A.644.644,0,0,0,712.506,256.6Zm-49.855,97.991h49.18v46.785h-49.18Zm0-96.64h49.18v47.092h-49.18Zm49.18,48.5V353.24h-49.18V306.455Zm-49.18,143.426V402.666h49.18v47.215Z" transform="translate(-661.3 -256.6)"/></g><path class="j" d="M666.342,235.259l3.193-3.193a.695.695,0,1,0-.982-.982l-3.193,3.193-3.193-3.193a.695.695,0,1,0-.982.982l3.193,3.193-3.193,3.193a.747.747,0,0,0,0,.982.747.747,0,0,0,.982,0l3.193-3.193,3.193,3.193a.747.747,0,0,0,.982,0,.747.747,0,0,0,0-.982Z" transform="translate(-656.334 -227.339)"/><g transform="translate(0.061 0.061)"><path class="j" d="M708.881,505.6H659.21a5.7,5.7,0,0,1-5.71-5.71V230.91a5.7,5.7,0,0,1,5.71-5.71h49.671a5.7,5.7,0,0,1,5.71,5.71V499.956A5.686,5.686,0,0,1,708.881,505.6Zm-49.61-279.176a4.507,4.507,0,0,0-4.482,4.482V499.956a4.507,4.507,0,0,0,4.482,4.482h49.671a4.507,4.507,0,0,0,4.482-4.482V230.91a4.507,4.507,0,0,0-4.482-4.482Z" transform="translate(-653.5 -225.2)"/></g><g transform="translate(10.806 26.34)"><g transform="translate(2.356)"><g transform="translate(12.81)"><circle class="b" cx="4.973" cy="4.973" r="4.973"/></g><g transform="translate(10.845 13.201)"><rect class="b" width="13.937" height="13.139"/></g><g transform="translate(10.906 28.796)"><rect class="b" width="3.868" height="7.491"/></g><g transform="translate(20.853 28.796)"><rect class="b" width="3.868" height="7.491"/></g><g transform="translate(0 13.889)"><rect class="b" width="14.244" height="3.745" transform="translate(0 12.967) rotate(-65.544)"/></g><g transform="translate(26.263 13.921)"><rect class="b" width="3.745" height="14.244" transform="translate(0 1.551) rotate(-24.456)"/></g></g><g transform="translate(0 97.93)"><g transform="translate(10.99 9.517)"><rect class="b" width="18.481" height="13.139"/></g><g transform="translate(10.99 22.472)"><path class="b" d="M688.9,471.591V464.1h3.929Z" transform="translate(-688.9 -464.1)"/></g><g transform="translate(25.603 22.472)"><path class="b" d="M716.568,471.591,712.7,464.1h3.868Z" transform="translate(-712.7 -464.1)"/></g><g transform="translate(0 10.192)"><path class="b" d="M671,457.055l5.956-12.955,3.377,1.535Z" transform="translate(-671 -444.1)"/></g><g transform="translate(30.883 10.192)"><path class="b" d="M730.633,457.055,724.738,444.1l-3.438,1.535Z" transform="translate(-721.3 -444.1)"/></g><g transform="translate(17.253)"><circle class="b" cx="3.008" cy="3.008" r="3.008"/></g></g><g transform="translate(3.517 48.32)"><g transform="translate(14.288)"><circle class="b" cx="2.21" cy="2.21" r="2.21"/></g><g transform="translate(9.56 6.447)"><rect class="b" width="13.937" height="17.13"/></g><g transform="translate(9.622 26.033)"><rect class="b" width="3.868" height="10.683"/></g><g transform="translate(19.568 26.033)"><rect class="b" width="3.868" height="10.683"/></g><g transform="translate(0 7.895)"><rect class="b" width="14.244" height="2.333" transform="translate(0 12.967) rotate(-65.544)"/></g><g transform="translate(25.221 7.943)"><rect class="b" width="2.333" height="14.244" transform="translate(0 0.966) rotate(-24.456)"/></g></g><g transform="translate(7.341 147.478)"><g transform="translate(10.28)"><circle class="b" cx="2.395" cy="2.395" r="2.395"/></g><g transform="translate(5.246 6.938)"><path class="b" d="M698.991,519.5,691.5,537.8h14.8Z" transform="translate(-691.5 -519.5)"/></g><g transform="translate(5.368 27.813)"><rect class="b" width="2.456" height="5.956"/></g><g transform="translate(17.709 27.813)"><rect class="b" width="2.456" height="5.956"/></g><g transform="translate(0 8.555)"><rect class="b" width="15.165" height="2.517" transform="translate(0 13.805) rotate(-65.544)"/></g><g transform="translate(17.069 8.439)"><rect class="b" width="2.517" height="15.165" transform="translate(0 1.042) rotate(-24.456)"/></g></g></g></g><g transform="translate(50.28 275.494)"><g transform="translate(7.097 0.706)"><circle class="a" cx="28.182" cy="28.182" r="28.182"/></g><g transform="translate(6.893 0.829)"><g transform="translate(0 27.015)"><path class="b" d="M70.322,477.978a15.522,15.522,0,0,0,1.719-.061c.307,0,.553-.061.86-.061l.737-.061c.921-.123,1.842-.246,2.7-.307s1.658-.123,2.456-.123h1.658a1.352,1.352,0,0,1,.491.061,10.616,10.616,0,0,1,1.9.43,16.519,16.519,0,0,1,1.965.8c.307.184.675.368.982.553a1.337,1.337,0,0,1,.491.307l.553.368c1.535.982,3.008,1.965,4.421,3.008,1.474,1.044,2.886,2.149,4.3,3.254.737.553,1.412,1.105,2.088,1.719.675.553,1.351,1.167,2.026,1.719a19,19,0,0,1,3.254,3.5,8.957,8.957,0,0,1,1.044,1.781,2.994,2.994,0,0,0,.184.43c0,.061.061.123.061.184a27.64,27.64,0,0,0,5.894-3.254,19.774,19.774,0,0,0-1.289-2.824,22,22,0,0,0-1.9-2.763,19.4,19.4,0,0,0-2.088-2.333c-.737-.737-1.351-1.412-2.088-2.088-.675-.675-1.412-1.351-2.149-1.965-1.474-1.289-2.947-2.579-4.482-3.807s-3.07-2.333-4.728-3.5l-.614-.43c-.246-.123-.43-.307-.675-.43a15.656,15.656,0,0,0-1.474-.86,25.106,25.106,0,0,0-3.193-1.412,22.411,22.411,0,0,0-3.5-.86,4.647,4.647,0,0,0-.921-.061c-.307,0-.614-.061-.921-.061H78.426a25.272,25.272,0,0,0-3.131.184c-.982.123-1.965.246-2.886.368l-.675.061c-.184,0-.368.061-.553.061-.368,0-.737.061-1.044.061a11.228,11.228,0,0,1-2.026-.123,8.466,8.466,0,0,1-1.781-.491,8.221,8.221,0,0,1-.737-.368,1.34,1.34,0,0,0-.307-.184,28.822,28.822,0,0,0,1.167,9.148h.061A18.043,18.043,0,0,0,70.322,477.978Z" transform="translate(-65.266 -468.4)"/></g><g transform="translate(17.458)"><path class="b" d="M97.568,427.9a52.56,52.56,0,0,1,4.6,2.7c3.131,2.026,6.324,4.052,9.455,6.078,3.193,1.965,6.324,3.991,9.517,5.956a56.344,56.344,0,0,0,5.035,2.824,18.21,18.21,0,0,0,5.71,1.781c.184,0,.307.061.491.061-.184-.8-.368-1.658-.553-2.456a18.682,18.682,0,0,1-4.236-1.9,42.177,42.177,0,0,1-4.482-3.131c-3.008-2.272-6.017-4.482-9.025-6.692l-9.025-6.631c-.921-.675-1.9-1.412-2.947-2.088a26.964,26.964,0,0,0-8.412,2.149A13.909,13.909,0,0,1,97.568,427.9Z" transform="translate(-93.7 -424.4)"/></g><g transform="translate(5.301 38.657)"><path class="b" d="M98.029,503.594c-.921-1.535-1.781-3.254-2.886-4.912a33.242,33.242,0,0,0-3.622-4.6,28.949,28.949,0,0,0-4.421-3.807c-.8-.553-1.6-1.105-2.456-1.6a10.521,10.521,0,0,0-2.824-1.167,5.049,5.049,0,0,0-1.658-.123,4.612,4.612,0,0,0-1.6.307,7.557,7.557,0,0,0-2.64,1.719,7.48,7.48,0,0,0-1.658,2.517c-.123.368-.246.675-.368,1.044a5.5,5.5,0,0,0,.921,1.167,6.977,6.977,0,0,1,2.149-3.807,5.772,5.772,0,0,1,2.149-1.228,4.3,4.3,0,0,1,2.333,0,7.075,7.075,0,0,1,2.272,1.105c.368.246.737.553,1.105.8a20344.183,20344.183,0,0,1,1.105.86,27.889,27.889,0,0,1,3.745,3.868,26.537,26.537,0,0,1,2.886,4.482c.737,1.412,1.351,2.947,2.026,4.543a34.427,34.427,0,0,0,4.359.061A5.837,5.837,0,0,1,98.029,503.594Z" transform="translate(-73.9 -487.361)"/></g><g transform="translate(1.433 13.692)"><path class="b" d="M68.214,453.147a5.617,5.617,0,0,1,1.044-.061,14.758,14.758,0,0,1,2.272.184c.8.123,1.6.307,2.456.491l1.289.368,1.289.368c1.719.553,3.438,1.105,5.1,1.781a65.005,65.005,0,0,1,9.762,4.728,63.525,63.525,0,0,1,16.7,14.183,40.65,40.65,0,0,0,3.807,4.3,8.983,8.983,0,0,0,1.167.982c.368.246.737.553,1.167.8.43-.43.8-.86,1.228-1.289-.061-.061-.184-.061-.246-.123a8.3,8.3,0,0,1-1.965-1.658,40.144,40.144,0,0,1-3.377-4.3,77.435,77.435,0,0,0-16.209-16.086,73.233,73.233,0,0,0-9.824-6.14c-1.719-.921-3.5-1.719-5.28-2.456-.43-.184-.921-.368-1.351-.553s-.921-.368-1.351-.553a20.678,20.678,0,0,0-2.947-.921c-.553-.123-1.044-.246-1.6-.368-.246-.061-.553-.061-.86-.123a26.592,26.592,0,0,0-2.886,6.692A1.426,1.426,0,0,1,68.214,453.147Z" transform="translate(-67.6 -446.7)"/></g><g transform="translate(6.345 5.649)"><path class="b" d="M76.03,439.31a11.877,11.877,0,0,0,2.7,2.579,19.862,19.862,0,0,0,2.886,1.719,22.545,22.545,0,0,0,2.886,1.228c.491.184.921.307,1.412.491l1.351.43c1.781.614,3.622,1.167,5.4,1.719s3.561,1.105,5.28,1.658,3.438,1.167,5.157,1.781c1.658.614,3.315,1.351,4.912,2.026,1.6.737,3.193,1.474,4.728,2.272a40.916,40.916,0,0,1,8.657,5.771c.614.614,1.289,1.228,1.842,1.9a15.727,15.727,0,0,1,1.228,1.6,31.75,31.75,0,0,0,.982-4.175c-.368-.614-.737-1.167-1.105-1.781a32.237,32.237,0,0,0-8.412-8.657,43.907,43.907,0,0,0-5.157-3.07c-.921-.43-1.781-.86-2.7-1.228-.43-.184-.921-.368-1.351-.553s-.921-.368-1.351-.553c-1.842-.675-3.622-1.289-5.464-1.842-1.781-.553-3.622-1.105-5.4-1.658s-3.561-1.044-5.342-1.535L87.88,439a7.939,7.939,0,0,1-1.289-.43,14.665,14.665,0,0,1-2.272-.921,8.613,8.613,0,0,1-1.965-1.105,4.8,4.8,0,0,1-1.412-1.289,2.327,2.327,0,0,1-.614-1.228v-.43a28.694,28.694,0,0,0-4.728,4.728A1.83,1.83,0,0,0,76.03,439.31Z" transform="translate(-75.6 -433.6)"/></g></g><g transform="translate(6.374)"><path class="j" d="M93.265,480.734a28.856,28.856,0,1,1,23.577-12.157A28.753,28.753,0,0,1,93.265,480.734Zm.123-56.3A27.494,27.494,0,0,0,66.25,456.543,27.5,27.5,0,0,0,115.8,467.779h0a27.452,27.452,0,0,0-6.57-38.312A27.681,27.681,0,0,0,93.388,424.432Z" transform="translate(-64.421 -423.051)"/></g><g transform="translate(0 1.995)"><path class="j" d="M117.992,462.709c.921.8,1.842,1.6,2.7,2.456s1.719,1.719,2.579,2.64a19.893,19.893,0,0,1,2.272,3.07,7.28,7.28,0,0,1,.8,1.965,3.175,3.175,0,0,1,.061,1.351,3.015,3.015,0,0,1-.614,1.535,3.59,3.59,0,0,1-1.289.921,4.5,4.5,0,0,1-1.228.307,11.829,11.829,0,0,1-2.088,0,24.574,24.574,0,0,1-3.807-.737c-1.228-.307-2.395-.737-3.561-1.105-1.167-.43-2.333-.86-3.438-1.351-2.272-.921-4.482-1.965-6.631-3.07s-4.3-2.21-6.447-3.377q-3.131-1.75-6.263-3.684c-2.088-1.289-4.114-2.579-6.14-3.929s-3.991-2.7-5.956-4.175-3.868-2.886-5.771-4.359c-1.9-1.535-3.807-3.008-5.587-4.6-.921-.8-1.842-1.6-2.7-2.456-.921-.8-1.781-1.658-2.64-2.517s-1.719-1.719-2.517-2.64-1.658-1.842-2.395-2.824a24.148,24.148,0,0,1-2.149-3.193,11.029,11.029,0,0,1-.86-1.9,6.523,6.523,0,0,1-.246-1.167,3.136,3.136,0,0,1,.123-1.474,2.673,2.673,0,0,1,.921-1.351,3.1,3.1,0,0,1,1.289-.614,3.977,3.977,0,0,1,1.167-.123,5.617,5.617,0,0,1,1.044.061,18.492,18.492,0,0,1,3.745.86,33.289,33.289,0,0,1,3.438,1.351,31.91,31.91,0,0,1,3.254,1.6.6.6,0,0,1,.246.8.568.568,0,0,1-.737.246h0c-1.105-.368-2.272-.8-3.377-1.105a34.491,34.491,0,0,0-3.377-.921,15.85,15.85,0,0,0-3.315-.43,3.97,3.97,0,0,0-1.351.184.656.656,0,0,0-.307.184c-.061.061,0,.061,0,.123a1.8,1.8,0,0,0,.246.921,7.335,7.335,0,0,0,.737,1.351,20.712,20.712,0,0,0,2.088,2.64,62.571,62.571,0,0,0,4.973,4.912c3.5,3.131,7.184,6.14,10.99,8.964,1.9,1.412,3.807,2.824,5.771,4.175s3.868,2.7,5.894,4.052c1.965,1.351,3.991,2.64,5.956,3.868q3.039,1.934,6.078,3.684c4.052,2.395,8.227,4.728,12.464,6.692,2.149.982,4.3,1.9,6.447,2.64a21.24,21.24,0,0,0,3.254.86,14.243,14.243,0,0,0,1.474.123c.184,0,.43-.061.553-.061a.464.464,0,0,1,.246-.061s.061,0,.061-.123v-.43a5.743,5.743,0,0,0-.43-1.351,15.927,15.927,0,0,0-1.781-2.886c-.675-.921-1.412-1.9-2.149-2.763-.737-.921-1.535-1.781-2.333-2.7h0a.574.574,0,0,1,.061-.8C117.44,462.525,117.747,462.525,117.992,462.709Z" transform="translate(-54.04 -426.3)"/></g></g><g transform="translate(66.096 224.932)"><g transform="translate(0.675 0.675)"><circle class="a" cx="8.719" cy="8.719" r="8.719"/></g><g transform="translate(0.675 3.07)"><path class="b" d="M80.9,352.024a8.63,8.63,0,0,0,7.491,8.6,3.688,3.688,0,0,0-.307-2.272c-.553-1.105-1.412-2.088-1.474-3.315-.061-2.21,2.579-3.807,2.517-6.017a3.531,3.531,0,0,0-2.272-2.886,8.823,8.823,0,0,0-3.377-.43A9.3,9.3,0,0,0,80.9,352.024Z" transform="translate(-80.9 -345.7)"/></g><g transform="translate(10.74 2.149)"><path class="b" d="M100.8,344.2a6.634,6.634,0,0,0-.307,1.289,10.8,10.8,0,0,0,.246,3.131,3.718,3.718,0,0,1-.675,3.008c-.614.614-1.535.86-2.149,1.474a2.18,2.18,0,0,0-.43,2.395,2.317,2.317,0,0,0,2.088,1.289,12.158,12.158,0,0,0,1.6-.368,7.016,7.016,0,0,1,1.965,0,8.95,8.95,0,0,0,1.535-4.912A8.793,8.793,0,0,0,100.8,344.2Z" transform="translate(-97.292 -344.2)"/></g><path class="j" d="M89.194,359.488a9.394,9.394,0,1,1,9.394-9.394A9.433,9.433,0,0,1,89.194,359.488Zm0-17.376a8.012,8.012,0,1,0,8.043,7.982A8.018,8.018,0,0,0,89.194,342.112Z" transform="translate(-79.8 -340.7)"/></g><g transform="translate(118.898 69.057)"><path class="j" d="M435.541,252.211c-.43-.43-.921-.8-1.351-1.228-3.438-3.008-6.692-5.771-6.877-10.99a26.4,26.4,0,0,0-7-17.437,38.126,38.126,0,0,0-5.464-4.6,39.8,39.8,0,0,1-9.087-8.6c-7.982-10.315-17.805-9.762-21.551-9.517-6.14.368-12.648,2.026-19.033,11.6a27.058,27.058,0,0,1-6.877,6.692c-2.947,2.149-5.956,4.359-8.043,9.025a27.249,27.249,0,0,0-1.6,7.368,39.292,39.292,0,0,1-3.622,13.63,69.686,69.686,0,0,1-4.359,7c-4.052,6.017-8.227,12.218-6.447,20.2a.719.719,0,0,0,.675.553h.184a.688.688,0,0,0,.491-.43c2.947-.675,22.963-5.035,38.128-5.035l1.842-15.718-6.447-15.718,1.474-16.393a33.524,33.524,0,0,0,25.664-9.578,13.233,13.233,0,0,0,4.543,4.482l3.315,19.586L396,255.22l3.07,15.411s24.129-.246,35.734.43l4.728.43a.8.8,0,0,0,.491.737.7.7,0,0,0,.86-.491C442.172,267.315,443.154,258.965,435.541,252.211Z" transform="translate(-230.656 -130.412)"/><g transform="translate(127.033 123.15)"><path class="a" d="M411.135,289.426l3.315,14.8h8.227a18.161,18.161,0,0,1-10.99,9.762,36.8,36.8,0,0,1-13.753,1.474,42.607,42.607,0,0,1-10.56-1.965c-5.342-1.658-6.508-2.395-14.674-7.552l15.9-1.719,2.64-16.823Z" transform="translate(-372.7 -287.4)"/></g><path class="j" d="M468.1,561.331c-.8-3.561-5.4-6.017-13.753-7.429-7.8-1.289-18.665-1.6-32.173-.921-27.813,1.412-63.915,6.815-101.859,15.227-37.883,8.411-72.879,18.849-98.666,29.348-12.587,5.1-22.226,9.947-28.8,14.49-7,4.789-10.131,9.026-9.332,12.525.8,3.561,5.4,6.017,13.753,7.429a6.781,6.781,0,0,1,.982.184,125.31,125.31,0,0,0,18.112,1.105h0c4.052,0,8.411-.123,13.139-.368,27.813-1.412,63.915-6.815,101.859-15.227,37.883-8.411,72.879-18.849,98.666-29.348,12.587-5.1,22.226-9.946,28.8-14.49C465.708,569.129,468.84,564.892,468.1,561.331Z" transform="translate(-172.594 -266.635)"/><path class="b" d="M322.227,392.556l1.658,17.13L321,453.524l-7,82.335c20.691-2.64,43.715-6.754,67.354-12.034,33.953-7.552,65.634-16.7,90.378-26.094l-5.894-19.463s-8.719-36.225-11.3-50.1c-2.579-13.937-2.886-35.3-2.886-35.3l-9.026-19.525-4.114-40.768L437.1,316.238s-9.885-1.351-16.455-1.6-20.568-.43-20.568-.43c-1.965,5.219-6.508,8.473-12.525,10.315s-12.218,1.658-15.165.737-6.14-.921-12.218-3.377c-4.789-1.658-10.008-6.017-10.008-6.017a11.671,11.671,0,0,0-5.71-2.886c-3.07-.368-5.771,3.377-5.771,3.377a17.514,17.514,0,0,0-4.482-.737c-1.842.061-4.114,2.149-4.114,2.149-4.6-3.315-8.166.86-9.824,4.359s-3.93,17.13-2.886,39.233S322.227,392.556,322.227,392.556Z" transform="translate(-223.008 -174.116)"/><g transform="translate(227.48 219.422)"><path class="j" d="M557.605,549.068a.718.718,0,0,1-.675-.491A480.468,480.468,0,0,1,539,472.873c-2.579-17.744-2.7-27.875-2.7-28a.681.681,0,0,1,.675-.675h0a.681.681,0,0,1,.675.675c0,.061.123,10.131,2.7,27.813a482.67,482.67,0,0,0,17.867,75.458.664.664,0,0,1-.43.86A.225.225,0,0,1,557.605,549.068Z" transform="translate(-536.3 -444.2)"/></g><g transform="translate(161.222 0)"><path class="b" d="M456.3,171.5v13.692a1.719,1.719,0,1,0,3.438,0V171.5Z" transform="translate(-439.16 -119.51)"/><path class="j" d="M458.306,153h-1.9l-.982-9.332a2.4,2.4,0,0,0-2.333-2.272,2.5,2.5,0,0,0-2.333,2.272L449.771,153h-1.9a3.868,3.868,0,0,0,0,7.736h2.886v12.771a2.4,2.4,0,0,0,2.395,2.395,2.438,2.438,0,0,0,2.394-2.395V160.74h2.579a3.852,3.852,0,0,0,3.868-3.868A3.628,3.628,0,0,0,458.306,153Zm-3.991,20.568a1.035,1.035,0,0,1-1.044,1.044,1,1,0,0,1-1.044-1.044V160.8h2.088v12.771Z" transform="translate(-434.412 -107.891)"/><g transform="translate(14.359 0.623)"><path class="a" d="M453.938,124.53s-2.395-4.912-2.149-15.718,5.157-16.393,10.99-18.788,15.6-3.561,26.831.43S509.748,98.5,523.87,115.2s18.419,38.742,19.954,45.926c1.474,7.245,4.359,37.453,1.167,57.53s-12.464,31.374-12.464,31.374-18.112-17.314-37.7-20.139A29.034,29.034,0,0,0,509.135,217.3c5.526-9.639,7.675-23.515,7.306-38.865s-4.789-33.032-9.026-41.935c-4.237-8.964-16.148-23.024-27.138-25.419,0,0-6.631-3.868-14.306,7.306s-7.429,7.8-7.429,7.8-1.167-.921.246-5.833c1.351-4.912,4.6-12.4,1.474-12.587-3.07-.246-2.395,14.122-3.315,16.025A2.066,2.066,0,0,1,453.938,124.53Z" transform="translate(-451.771 -87.837)"/></g><g transform="translate(20.455 0.868)"><path class="b" d="M461.7,94.169a29.679,29.679,0,0,0,11.911-.921c7.122-1.842,19.463-.43,33.216,8.964s31.866,27.506,36.655,62.135,2.149,62.626-10.99,82.519c0,0,2.763,4.114,3.438,3.684s5.771-7.061,9.885-20.875c4.052-13.815,5.28-32.6,4.6-44.636-.675-11.973-1.965-40.277-20.445-66.985-16.639-24.007-45.066-30.392-52.986-29.778C468.945,88.828,464.954,90.977,461.7,94.169Z" transform="translate(-461.7 -88.236)"/></g><g transform="translate(6.685 14.476)"><path class="a" d="M447.64,110.4s-9.885,17.191-8.166,18.911,7.245-6.508,7.245-6.508Z" transform="translate(-439.273 -110.4)"/></g><g transform="translate(0.946 8.336)"><path class="a" d="M446.671,100.4s-7.982,5.342-11.6,8.166c-3.684,2.824-5.771,4.912-4.973,6.017.86,1.167,6.017-1.781,6.017-1.781s6.815-8.412,7.122-8.657C443.54,103.961,446.671,100.4,446.671,100.4Z" transform="translate(-429.924 -100.4)"/></g><g transform="translate(2.849 10.608)"><path class="a" d="M446.885,104.714l-3.009,5.649-3.5,6.508-1.658,3.807s-5.219,3.991-5.649,2.272c-.43-1.658,2.272-6.14,2.272-6.14l5.587-7.122,5.1-5.587Z" transform="translate(-433.025 -104.1)"/></g><path class="j" d="M535.595,160.916a119.464,119.464,0,0,0-13.139-36.593c-11.727-20.63-31.559-32.357-45-36.1a39.712,39.712,0,0,0-19.156-.43,22.377,22.377,0,0,0-11.052,5.771h-.061a1397.56,1397.56,0,0,0-.123.123l-.061.061-.061.061c-.061,0-.123.061-.184.061s-4.789,3.07-9.394,6.385c-8.473,6.14-9.271,7.982-8.9,9.087a1.839,1.839,0,0,0,1.167,1.167,3.111,3.111,0,0,0,.8.123,6.376,6.376,0,0,0,2.7-.737c-2.763,3.991-2.886,5.526-2.64,6.385a1.183,1.183,0,0,0,.921.921.779.779,0,0,0,.368.061c1.044,0,2.456-.86,3.684-1.781-1.412,3.622-1.167,4.666-.675,5.219a1.512,1.512,0,0,0,1.167.553h.123c.553-.061,2.088-.123,6.017-5.587.43,3.991,1.351,8.043,2.7,9.394a1.534,1.534,0,0,0,1.842.368c1.658-.921,2.026-4.6,2.456-8.964.307-3.315.737-7.491,1.842-8.35a.38.38,0,0,1,.43-.123c.123,0,.184.061.246.184.675,1.105-.675,5.4-1.658,8.6-1.6,5.157-2.886,9.271-.8,10.253a1.891,1.891,0,0,0,.8.184c1.658,0,3.193-2.333,5.157-5.342,2.763-4.175,6.2-9.332,10.867-10.5,4.175-.982,11.052,1.965,17.56,7.491a58.752,58.752,0,0,1,17.13,25.05c5.894,16.762,7.552,37.944,4.728,54.583a107.492,107.492,0,0,1-3.009,11.727c-2.886,8.411-7.613,13.078-10.867,15.349a16.63,16.63,0,0,1-6.324,3.009.686.686,0,0,0,.246,1.351,18.091,18.091,0,0,0,6.815-3.193c6.2-4.421,9.639-11.236,11.481-16.209a32.242,32.242,0,0,1,9.7-12.894c2.272-1.965,4.114-3.5,4.728-6.754,2.333-12.218-16.577-49.3-17.376-50.9-.061-.061-.123-.184-.184-.246-8.534-19.954-26.524-31.8-34.935-29.778-5.219,1.228-8.964,6.877-11.727,11.052-1.6,2.395-3.377,5.1-4.236,4.728-.061-.061-.553-.368-.123-2.579a53,53,0,0,1,1.658-5.956c1.535-5.035,2.456-8.227,1.474-9.7a1.7,1.7,0,0,0-1.228-.8,1.979,1.979,0,0,0-1.535.43c-1.6,1.228-1.965,5.157-2.333,9.332-.307,3.07-.675,7.306-1.719,7.859h0c-.061,0-.246-.123-.614-.675-1.965-3.438-3.254-15.472-.737-23.27,1.474-2.64,2.64-4.6,3.07-5.342,2.456-2.64,6.14-4.6,10.745-5.71a37.7,37.7,0,0,1,18.481.368c13.139,3.684,32.6,15.165,44.145,35.427A118.312,118.312,0,0,1,534,161.284a180.337,180.337,0,0,1,2.395,44.7c-.921,15.349-4.544,26.278-7.368,32.725-3.07,7-5.956,10.376-6.017,10.376a.746.746,0,0,0,.061.982.663.663,0,0,0,.43.184.75.75,0,0,0,.553-.246c.123-.123,3.008-3.5,6.2-10.683,5.219-11.911,7-24.682,7.491-33.278A173.092,173.092,0,0,0,535.595,160.916ZM434.9,107.377c-1.474.982-3.868,2.149-4.85,1.842a.394.394,0,0,1-.307-.307c0-.184.368-1.719,8.657-7.736,1.535-1.105,3.131-2.21,4.543-3.131-1.412,1.535-3.009,3.377-4.6,5.219-1.289,1.535-2.333,2.824-3.254,4.052A.226.226,0,0,0,434.9,107.377Zm-3.07,8.534h0c-.123-.491,0-2.763,7.552-11.727,1.474-1.719,2.947-3.377,4.236-4.789-.061.123-.061.246-.123.368-1.105,1.9-2.272,4.114-3.5,6.324-1.351,2.517-2.456,4.789-3.315,6.692h-.061C434.534,114.683,432.385,115.973,431.832,115.911Zm10.192-2.456v.061c-3.193,4.6-5.157,6.263-5.956,6.324a.225.225,0,0,1-.184-.061c-.061-.123-.614-1.781,5.464-13.323.307-.614.675-1.228.982-1.842A46.045,46.045,0,0,0,442.024,113.455Z" transform="translate(-428.384 -86.823)"/></g><g transform="translate(188.846 108.722)"><g transform="translate(2.163)"><path class="a" d="M490.408,286.249a.631.631,0,0,1-.675-.614c-.184-3.622-2.947-5.833-5.833-8.166a30.191,30.191,0,0,1-3.315-2.886c-3.5-3.684-3.684-9.7-3.684-9.946a.707.707,0,1,1,1.412-.061c0,.061.184,5.771,3.315,9.026a28.709,28.709,0,0,0,3.193,2.763c3.009,2.395,6.078,4.912,6.324,9.148a.79.79,0,0,1-.737.737Z" transform="translate(-476.9 -263.9)"/></g><g transform="translate(0 7.727)"><path class="a" d="M481.987,290.37a.631.631,0,0,1-.675-.614A6.122,6.122,0,0,0,478,285.274c-5.4-3.131-4.6-7.982-4.543-8.227a.686.686,0,1,1,1.351.246c0,.184-.675,4.175,3.868,6.754a7.427,7.427,0,0,1,3.991,5.587.633.633,0,0,1-.675.737Z" transform="translate(-473.377 -276.485)"/></g></g><g transform="translate(0 64.972)"><g transform="translate(0.419 0.77)"><path class="a" d="M263.747,274.638s-2.886,6.263-3.377,27.2a231,231,0,0,0,2.579,39.11,28.773,28.773,0,0,0-14.367-10.683c-9.332-2.886-29.348-9.762-42-18.972-12.648-9.148-21.858-16.332-28.427-33.032-6.57-16.639-5.956-43.408-4.114-51.329,0,0-1.965-4.421-2.088-7.061,0,0-3.684,6.938-4.912,5.956s-.184-4.666.614-7.245c.737-2.579,1.9-7.306,4.666-6.631,0,0,1.474-4.114,3.131-4.359a4.376,4.376,0,0,1,3.07.921s1.289-2.088,3.07-1.535a19.646,19.646,0,0,1,4.114,2.149s-1.044-15.165.8-15.227,2.579,3.745,3.438,6.2,3.438,15.042,3.438,15.042,5.1-9.885,6.508-8.043c1.351,1.842-1.228,8.534-1.228,8.534s-4.543,18.419-3.438,31.313,4.3,22.41,11.174,29.962,14.367,8.412,22.41,7.429,19.033-4.543,19.033-4.543Z" transform="translate(-166.481 -193.899)"/></g><g transform="translate(25.165 29.444)"><path class="b" d="M279.306,292.665l-15.963,5.219s-21.182,7.8-33.462,2.395-18.665-21.428-19.34-34.26a106.781,106.781,0,0,1,2.149-25.419s-3.622,1.965-4.6,8.35c-.86,5.587-1.965,16.393,2.333,34.813,2.149,9.271-1.535,12.525-3.07,15.963-1.658,3.622,0,7.306,9.885,8.289a71.936,71.936,0,0,0,20.691-1.351c22.717-4.666,29.471-7.429,40.523-11.113Z" transform="translate(-206.787 -240.6)"/></g><path class="j" d="M348.7,326.219h0l-7.92-5.771-3.868-3.008c-1.289-.982-2.579-1.965-3.868-3.009-5.1-4.114-10.131-8.227-14.92-12.648-1.228-1.105-2.456-2.149-3.622-3.315s-2.333-2.272-3.5-3.377l-3.438-3.438-.43-.43-.43-.43-.8-.921-1.658-1.781c-.553-.614-1.105-1.228-1.658-1.781l-1.658-1.842c-.553-.614-1.044-1.228-1.6-1.842a23.092,23.092,0,0,1-1.535-1.9l-1.535-1.9-1.474-1.965c-.491-.675-.921-1.351-1.412-1.965l-.675-.982-.307-.491-.184-.246a21.261,21.261,0,0,1,.737-2.579l.43.491,1.105,1.289c.737.86,1.535,1.658,2.333,2.456,1.6,1.658,3.254,3.193,4.912,4.6a87.382,87.382,0,0,0,10.929,7.982,96.023,96.023,0,0,0,11.973,6.2,94.874,94.874,0,0,0,12.771,4.359c.123.061.307-.061.368-.184s-.061-.307-.184-.368a93.871,93.871,0,0,1-12.648-4.482,86.679,86.679,0,0,1-11.788-6.263,84.831,84.831,0,0,1-10.683-7.982q-2.487-2.21-4.789-4.6c-.43-.43-.8-.86-1.228-1.351a44.419,44.419,0,0,0,6.078,3.315,45.751,45.751,0,0,0,18.481,3.807,48.352,48.352,0,0,0,9.517-.921c5.71-1.105,11.727-6.263,12.894-11.052a.663.663,0,0,0-1.289-.307c-1.044,4.236-6.631,9.026-11.788,10.069a45.084,45.084,0,0,1-27.077-2.824,39.024,39.024,0,0,1-8.841-5.342c8.35-.86,14.49-1.105,14.551-1.105a.669.669,0,0,0,.675-.614l2.088-18.358a.678.678,0,0,0-1.351-.123l-1.965,17.744c-1.842.061-7.8.368-15.288,1.228a7.822,7.822,0,0,0-5.771-2.21,9.074,9.074,0,0,0-5.894,2.886,15.774,15.774,0,0,0-2.456-.43,9.586,9.586,0,0,0-2.947.246,5.775,5.775,0,0,0-2.64,1.535l-.123.123c-3.008-2.333-6.754,0-8.35,1.658a16.392,16.392,0,0,0-1.412,1.781c-2.517.737-5.1,1.535-7.8,2.395-16.823,5.342-35.856,11.359-45.741,2.149A42.444,42.444,0,0,1,198.1,260.339c-1.9-5.771-2.64-12.4-2.395-20.691.246-8.166,2.088-17.253,3.438-23.822s1.719-8.78,1.167-9.578a1.126,1.126,0,0,0-.614-.43c-1.535-.246-3.438,2.21-4.421,3.684a23.357,23.357,0,0,0-1.965,3.684c-.368-1.965-.921-5.035-1.6-8.227-2.149-9.762-3.5-11.6-4.359-12.1a1.552,1.552,0,0,0-1.105-.184c-1.167.368-2.21,1.965-1.6,10.929a38.833,38.833,0,0,0,.368,3.929c-1.474-1.167-3.991-2.64-6.017-1.105a2.8,2.8,0,0,0-.737.737,3.47,3.47,0,0,0-1.167-.737,3.259,3.259,0,0,0-2.579.307c-1.044.553-1.781,1.842-2.272,3.929a2.77,2.77,0,0,0-3.131,1.474c-.675,1.167-3.991,10.253-3.193,12.955a1.278,1.278,0,0,0,.737.921,1.541,1.541,0,0,0,.614.123,1.7,1.7,0,0,0,.553-.061c1.351-.491,3.009-3.07,4.052-5.035.368,2.517.86,4.175,1.6,5.035a120.13,120.13,0,0,0,.184,36.163c1.412,8.473,3.807,18.481,10.5,28.3,6.877,10.131,17.805,19.156,33.278,27.69,7.429,4.114,14.92,6.631,21.551,8.841,11.543,3.929,20.814,7.061,24.5,16.393a15.291,15.291,0,0,0,.675,2.149c.368,1.289,2.64,9.455,1.9,23.27-.675,13.016-2.64,37.821-2.64,38.005h0l-6.631,83.01c.184,0,.307-.061.43-.061-.061,0,.123-.061.184-.061a2.991,2.991,0,0,1,.737-.061h.061l6.631-82.642h0c0-.246,1.965-25.05,2.64-38.067.614-12.4-.982-20.2-1.719-22.9v-.184h0a23.407,23.407,0,0,0-.86-2.7c-.43-1.658-1.044-4.052-1.6-7.306-1.105-6.2-2.333-16.823-2.149-32.111.246-22.963,2.579-28.366,4.973-30.822.061-.061,3.745-3.745,6.508-1.474a3.291,3.291,0,0,0-.307.675c-.061.123-.061.246-.123.368s-.061.246-.123.368a68.389,68.389,0,0,0-2.149,14,135.362,135.362,0,0,0,.061,14.122c.246,4.728.737,9.394,1.289,14.06s1.167,9.332,1.9,13.937a.373.373,0,1,0,.737-.123c-.675-4.666-1.289-9.332-1.781-13.937-.491-4.666-.921-9.332-1.105-14a133.093,133.093,0,0,1,.061-14,64.92,64.92,0,0,1,2.21-13.753v-.061c0-.061.061-.184.061-.246a.465.465,0,0,1,.123-.246c.061-.184.184-.368.246-.553a3.744,3.744,0,0,1,.737-.982,4.4,4.4,0,0,1,2.088-1.167,6.893,6.893,0,0,1,2.517-.184,18,18,0,0,1,1.781.307c-.061.061-.061.184-.123.246l-.368,1.105a7.423,7.423,0,0,0-.307,1.105,7.421,7.421,0,0,1-.307,1.105l-.246,1.105-.184,1.105-.184,1.105-.123,1.105c-.061.368-.061.737-.123,1.105l-.061,1.105-.061,1.105c0,.368-.061.737-.061,1.105,0,.737-.061,1.474-.061,2.21v4.421l.061,2.21.123,2.21.061,1.105c0,.368.061.737.061,1.105.123,1.474.246,2.947.368,4.359l.491,4.359a.307.307,0,0,0,.368.307c.184-.061.368-.184.307-.368h0l-.43-4.359c-.123-1.474-.184-2.886-.307-4.359,0-.368-.061-.737-.061-1.105l-.061-1.105-.061-2.149v-4.3l.061-2.149c0-.737.061-1.474.123-2.149,0-.368.061-.737.061-1.105l.123-1.105.123-1.105.184-1.105.184-1.105c.061-.368.123-.737.184-1.044a6.423,6.423,0,0,1,.246-1.044l.246-1.044a6.709,6.709,0,0,1,.307-1.044,4.6,4.6,0,0,1,.307-.982c.123-.368.246-.675.368-.982a3,3,0,0,1,.184-.43c.061-.061.061-.123.123-.246,0-.061.061-.061.061-.123h0a8.075,8.075,0,0,1,5.219-2.64,6.992,6.992,0,0,1,4.85,1.9,16.325,16.325,0,0,0-1.167,3.622.46.46,0,0,0-.061.307,64.205,64.205,0,0,0-1.228,11.6v.184c-.246,7.491.123,18.358,1.842,33.769a.715.715,0,0,0,.675.614h.061a.729.729,0,0,0,.614-.737c-.675-6.017-1.105-11.3-1.412-16.025.307.614.614,1.228.921,1.781.921,1.719,1.842,3.377,2.824,4.973a71.382,71.382,0,0,0,6.815,9.21,58.992,58.992,0,0,0,8.289,7.859l.553.43a3.375,3.375,0,0,1,.553.43l1.167.86,1.167.8.614.368.614.368,1.228.737,1.289.675.614.368.614.307,1.289.614a.316.316,0,1,0,.307-.553h0l-1.289-.614-.614-.307-.614-.368-1.228-.737-1.167-.737-.614-.368-.553-.368-1.167-.8-1.105-.86a3.376,3.376,0,0,1-.553-.43l-.553-.43a60.817,60.817,0,0,1-8.043-7.859,73.265,73.265,0,0,1-6.57-9.148,54.882,54.882,0,0,1-2.7-4.912c-.43-.86-.8-1.719-1.228-2.517l-1.105-2.579c-.184-4.3-.246-7.982-.246-11.174a8.6,8.6,0,0,0,.614.982c.675,1.105,1.351,2.149,2.088,3.193a74.512,74.512,0,0,0,4.728,5.956c1.658,1.9,3.438,3.684,5.219,5.464.43.43.921.86,1.351,1.289l1.412,1.289c.921.8,1.9,1.658,2.824,2.456a131.628,131.628,0,0,0,12.1,9.025c4.175,2.763,8.534,5.342,12.955,7.675a.27.27,0,0,0,.307-.061.406.406,0,0,0-.061-.368c-4.421-2.395-8.657-5.035-12.832-7.859a130.515,130.515,0,0,1-11.911-9.148c-.921-.8-1.842-1.658-2.824-2.517l-1.351-1.289c-.43-.43-.921-.86-1.351-1.289-1.781-1.781-3.438-3.622-5.1-5.464-1.6-1.9-3.131-3.868-4.543-5.894-.737-1.044-1.351-2.088-2.026-3.131-.307-.553-.614-1.044-.921-1.6-.246-.491-.553-.982-.737-1.474a75.256,75.256,0,0,1,.86-9.824l.368.553c.491.675.921,1.351,1.474,2.026l1.474,1.965,1.535,1.9c.491.614,1.044,1.289,1.6,1.9s1.044,1.289,1.6,1.842l1.658,1.842c.553.614,1.105,1.228,1.658,1.781l1.719,1.781.86.921.43.43.43.43,3.5,3.438c1.167,1.105,2.395,2.272,3.561,3.377s2.456,2.21,3.622,3.254c4.912,4.359,9.946,8.473,15.1,12.525,1.289.982,2.64,1.965,3.929,2.947l3.929,2.947,7.982,5.71c.123.061.307.061.368-.061A1.155,1.155,0,0,0,348.7,326.219ZM171.694,212.571a32.905,32.905,0,0,0-.246,6.078c-.184.307-.921,1.842-1.781,3.377-1.658,2.7-2.395,2.947-2.517,2.947-.061-.184-.43-1.289.86-5.833a45.755,45.755,0,0,1,2.149-6.14,1.528,1.528,0,0,1,1.658-.86A.888.888,0,0,0,171.694,212.571Zm1.228,7.675c-.553-4.789.246-11.3,2.026-12.218a1.707,1.707,0,0,1,2.456.491c-1.105,2.824-.737,7.245-.43,9.639v.061c-.737,3.5-1.719,6.815-2.272,7.306a.369.369,0,0,1-.246-.061C174.15,225.219,173.413,224.3,172.922,220.246Zm86.51,83.5c-.184,16.762,1.228,28.059,2.579,34.751-4.728-6.508-13.016-9.332-22.84-12.648-6.57-2.21-14-4.728-21.366-8.78-34.383-18.911-40.093-37.514-43.04-55.013a118.506,118.506,0,0,1-.246-35.242h.061a1.352,1.352,0,0,0,.491-.061c.553-.184,1.228-.614,2.272-4.543.061-.246.123-.553.184-.8.614,2.21,1.658,4.236,2.947,4.236h.246c.43-.061,1.474-.246,2.21-5.464a47.766,47.766,0,0,0,.43-9.332.707.707,0,1,0-1.412.061c.246,5.894-.737,12.4-1.6,13.385-.43-.246-1.351-1.781-1.9-4.728a33.688,33.688,0,0,1-.553-6.692c.061-2.763.675-4.666,1.6-5.4,1.9-1.412,4.973,1.535,5.4,2.026.246,2.088.43,3.561.43,3.622a.686.686,0,1,0,1.351-.246c0-.061-.675-4.728-.982-9.455-.553-8.166.43-9.332.614-9.455.246.123,1.535,1.351,3.622,10.867,1.167,5.342,2.026,10.622,2.026,10.683h0c-.246.737-.43,1.412-.614,2.088-1.535.737-7.8,3.929-8.227,9.455a.678.678,0,1,0,1.351.123c.43-5.342,7.613-8.412,7.675-8.412a.7.7,0,0,0,.43-.491c1.474-6.017,5.035-10.683,6.263-11.236a58.731,58.731,0,0,1-1.412,8.35c-1.351,6.631-3.254,15.779-3.5,24.068-.246,8.473.553,15.227,2.456,21.182a43.512,43.512,0,0,0,12.28,18.6c3.991,3.684,9.332,5.1,15.349,5.1,9.7,0,21.182-3.622,31.743-7,2.272-.737,4.421-1.412,6.508-2.026C260.967,279.311,259.616,286.8,259.432,303.747Z" transform="translate(-165.799 -192.644)"/></g><g transform="translate(90.808 182.522)"><g transform="translate(0.675 0.675)"><circle class="a" cx="66.801" cy="66.801" r="66.801"/></g><g transform="translate(0.675 16.639)"><path class="l" d="M314.8,462.037a66.72,66.72,0,0,0,30.638,56.179c.8-2.149,1.351-4.421,2.64-6.324,2.824-4.236,8.289-5.526,13.139-7.184,4.789-1.658,10.008-4.973,10.192-10.069.368-8.964-14.367-12.034-15.288-20.937-.553-5.219,3.991-9.332,7.245-13.446,5.1-6.385,7.245-16.762,1.105-22.1-4.543-3.991-11.42-3.377-17.007-5.587-10.745-4.421-8.6-12.771-9.21-21.366A66.628,66.628,0,0,0,314.8,462.037Z" transform="translate(-314.8 -411.2)"/></g><g transform="translate(88.745 21.919)"><path class="l" d="M503.773,465.357a66.345,66.345,0,0,0-17.99-45.557c-5.894.246-12.1,4.114-15.288,8.841-4.114,6.14-5.035,13.876-5.157,21.244s.43,14.92-1.289,22.1c-1.474,6.017-4.421,11.6-5.464,17.744-1.105,6.078.368,13.323,5.71,16.455,2.7,1.658,6.017,1.9,8.964,2.947,3.008,1.044,6.017,3.377,6.078,6.508,0,.43-.061.921-.061,1.351A66.541,66.541,0,0,0,503.773,465.357Z" transform="translate(-458.241 -419.8)"/></g><g transform="translate(97.891 34.69)"><path class="b" d="M500.928,440.6a26.947,26.947,0,0,0-13.63,4.789,12.7,12.7,0,0,0-4.175,4.482,13.4,13.4,0,0,0-1.167,4.912c-.43,5.157.184,10.376.246,15.534s-.553,10.56-3.254,14.981c-1.412,2.333-3.377,4.236-4.666,6.631s-1.719,5.526-.061,7.675c1.9,2.517,5.587,2.64,8.6,1.965,3.07-.614,6.14-1.842,9.21-1.167,3.438.8,5.956,3.868,9.025,5.526a66.775,66.775,0,0,0-.123-65.327Z" transform="translate(-473.138 -440.6)"/></g><path class="b" d="M387.143,389.989a66.363,66.363,0,0,1,41.137,14.183A66.769,66.769,0,0,0,324.7,417.127h0a4.131,4.131,0,0,1-.43.675,1.337,1.337,0,0,1-.307.491c-.123.246-.246.43-.368.675-.123.184-.184.368-.307.553a9.935,9.935,0,0,1-.614,1.105,2.488,2.488,0,0,1-.307.553c-.123.246-.246.43-.368.675a5.678,5.678,0,0,1-.307.614,7.988,7.988,0,0,0-.491,1.044,2.869,2.869,0,0,1-.307.614,13619.4,13619.4,0,0,1-.614,1.351c-.123.246-.246.553-.368.8l-.368.921c-.061.184-.184.43-.246.614-.061.246-.184.491-.246.737a4.235,4.235,0,0,1-.246.614,8.951,8.951,0,0,1-.43,1.167l-.184.553c-.061.246-.184.553-.246.8l-.184.553c-.123.43-.246.8-.368,1.289a3.913,3.913,0,0,1-.123.43c-.061.307-.184.614-.246.982-.061.184-.061.368-.123.553-.061.368-.184.737-.246,1.167,0,.123-.061.246-.061.43-.061.368-.184.8-.246,1.167,0,.184-.061.307-.061.491l-.184,1.105c0,.123-.061.246-.061.368-.061.43-.184.921-.246,1.412,0,.123-.061.307-.061.43l-.184,1.105a.778.778,0,0,1-.061.368L315.307,445a.779.779,0,0,1-.061.368c-.061.368-.061.8-.123,1.167v.368a11.83,11.83,0,0,0-.061,1.474v.246c0,.43-.061.86-.061,1.289V453.6a9.948,9.948,0,0,0,.061,1.351v.184c0,.43.061.86.061,1.289v.246a10.039,10.039,0,0,0,.123,1.351v.246c.061.43.061.921.123,1.351h0c.061.43.123.921.184,1.412a.369.369,0,0,0,.061.246c.061.43.123.921.184,1.351v.061c.061.43.184.921.246,1.351v.184c.061.43.184.921.246,1.351v.184c.184.921.43,1.9.675,2.824,0,.061,0,.061.061.123.246.921.553,1.9.8,2.824v.061a66.785,66.785,0,0,0,22.656,32.787,69.469,69.469,0,0,1-7.859-9.148,19.374,19.374,0,0,1,3.254-2.272c3.745-1.842,8.166-1.351,12.28-1.9s8.657-3.377,8.534-7.491c-.123-4.421-5.219-6.754-7.552-10.5-4.912-7.92,3.684-19.095-.737-27.322-3.193-5.894-11.174-6.938-16.393-11.113a16.755,16.755,0,0,1-5.157-7A67.29,67.29,0,0,1,387.143,389.989Z" transform="translate(-314.202 -384.525)"/><path class="j" d="M381.176,519.053a67.5,67.5,0,1,1,47.706-19.77A66.915,66.915,0,0,1,381.176,519.053Zm0-133.6a66.032,66.032,0,1,0,46.724,19.34A65.722,65.722,0,0,0,381.176,385.451Z" transform="translate(-313.7 -384.1)"/><path class="b" d="M393.81,419.278a6.07,6.07,0,0,0-1.842.246,10.763,10.763,0,0,0-20.568,4.421v.246h29.655A7.9,7.9,0,0,0,393.81,419.278Z" transform="translate(-335.973 -395.333)"/><g transform="translate(66.126 71.59)"><path class="b" d="M442.889,511.69v-.246a10.745,10.745,0,0,0-21.489,0v.246Z" transform="translate(-421.4 -500.7)"/><g transform="translate(14.674 6.078)"><path class="b" d="M459.667,515.512a7.709,7.709,0,0,0-14.367,0Z" transform="translate(-445.3 -510.6)"/></g></g></g><g transform="translate(88.168 319.133)"><g transform="translate(0.666 0.731)"><rect class="a" width="135.567" height="20.998" transform="matrix(1, -0.007, 0.007, 1, 0, 1.015)"/></g><path class="j" d="M446.317,607.275a.681.681,0,0,0-.675-.675l-135.567.982a.634.634,0,0,0-.675.675l.184,21a.681.681,0,0,0,.675.675h0l135.567-.982a.634.634,0,0,0,.675-.675ZM310.935,628.581l-.184-19.586,5.956-.061v11.3a.675.675,0,0,0,1.351,0v-11.3l10.315-.061.061,4.421a.681.681,0,0,0,.675.675h0a.681.681,0,0,0,.675-.675l-.061-4.421,10.438-.061v11.481a.675.675,0,0,0,1.351,0V608.81l9.148-.061.061,4.359a.681.681,0,0,0,.675.675h0a.681.681,0,0,0,.675-.675l-.061-4.359,8.719-.061v11.6a.675.675,0,0,0,1.351,0v-11.6l8.841-.061.061,4.359a.681.681,0,0,0,.675.675h0a.681.681,0,0,0,.675-.675l-.061-4.359,9.026-.061v11.727a.675.675,0,0,0,1.351,0V608.5l8.657-.061.061,4.359a.681.681,0,0,0,.675.675h0a.681.681,0,0,0,.675-.675l-.061-4.359,9.21-.061v11.911a.675.675,0,0,0,1.351,0V608.381l8.841-.061.061,4.359a.681.681,0,0,0,.675.675h0a.681.681,0,0,0,.675-.675l-.061-4.359,9.026-.061v11.666a.675.675,0,0,0,1.351,0V608.2l10.008-.123.061,4.359a.681.681,0,0,0,.675.675h0a.681.681,0,0,0,.675-.675l-.061-4.359,9.762-.061.184,19.586Z" transform="translate(-309.4 -606.6)"/><g transform="translate(126.48 8.534)"><circle class="b" cx="2.886" cy="2.886" r="2.886"/></g></g><g transform="translate(20.727 209.811)"><g transform="translate(0.344 0.77)"><path class="a" d="M220.8,429.8s-15.718,14.244-20.016,48.259,13.446,54.521,18.6,63.547,29.1,20.261,29.1,20.261,10.069,2.886,17.56,3.5,16.086-.737,15.534-1.842-4.728-2.21-9.455-3.07-15.411-1.289-15.227-8.35c.184-7.122,7.675-8.964,7.675-8.964s17.253-2.886,16.762-7.859c0,0-12.28-.184-13.753-.246s-14.736,2.886-27.875-10.5S227,495.312,226.876,489.663s1.965-17.56,4.482-21L227.122,445.7Z" transform="translate(-200.117 -429.8)"/></g><g transform="translate(0.512 29.689)"><path class="b" d="M208.87,478.681s-8.718,28.182,3.009,57.039c11.666,28.857,35.979,36.225,33.462,42.856,0,0-15.6-5.035-29.348-23.393s-14.92-38.742-15.534-46.662c-.614-7.982,3.193-27.69,4.6-31.62Z" transform="translate(-200.392 -476.9)"/></g><g transform="translate(48.715 132.837)"><path class="a" d="M278.9,644.9s9.7,9.394,12.4,11.113c2.7,1.781,5.833,4.728,6.938,2.947s-3.377-7.184-3.377-7.184Z" transform="translate(-278.9 -644.9)"/></g><g transform="translate(55.469 135.416)"><path class="a" d="M289.9,649.1l11.973,5.71s9.517,4.3,10.376,1.9c.8-2.395-8.35-6.631-8.35-6.631Z" transform="translate(-289.9 -649.1)"/></g><path class="j" d="M282.286,562.856c-.246-.921-1.412-1.535-7.491-2.824-1.167-.246-2.395-.43-3.684-.675-5.464-.921-11.666-2.026-13.508-5.1a4.623,4.623,0,0,1-.246-3.868c1.9-6.14,7.859-7.491,13.63-8.841,1.474-.368,2.886-.675,4.175-1.044,3.5-1.105,5.71-2.456,6.508-4.175a2.647,2.647,0,0,0,.184-2.149.781.781,0,0,0-.737-.43c-.184,0-21.735,1.9-31.006-2.64a39.12,39.12,0,0,1-17.437-17.376c-3.929-7.613-5.771-16.823-5.4-26.585a55.652,55.652,0,0,1,1.535-10.867.369.369,0,0,0,.061-.246,29.41,29.41,0,0,1,2.824-7.491.674.674,0,1,0-1.167-.675,30.082,30.082,0,0,0-2.579,6.447l-17.5-26.831a.672.672,0,0,0-.8-.246,83.194,83.194,0,0,1,11.113-17.56.7.7,0,1,0-1.044-.921A85.919,85.919,0,0,0,207.2,449.27a92.367,92.367,0,0,0-7.306,44.943,85.589,85.589,0,0,0,7.736,29.962,75.845,75.845,0,0,0,14.613,21A71.843,71.843,0,0,0,247.9,562.119c0,.061.061.061.061.123.061.061,4.052,3.868,8.289,7.613,7.184,6.2,9.394,7.122,10.376,7.122.246,0,.368-.061.491-.061a1.933,1.933,0,0,0,1.351-1.351c.184-.8.123-2.21-2.456-5.526,4.175,1.781,8.166,3.254,9.824,3.254h.061A1.927,1.927,0,0,0,277.989,572c.246-.8-.123-2.272-3.254-4.237-.8-.553-1.965-1.228-2.947-1.781,5.587,0,8.964-.8,9.639-1.412C281.918,564.084,282.471,563.593,282.286,562.856Zm-18.849,5.956c3.807,4.3,3.929,5.833,3.807,6.263a.712.712,0,0,1-.43.43c-.246.061-1.781-.061-9.639-6.877-2.333-2.026-4.6-4.114-6.14-5.526.368.123.737.184,1.105.307.43.246,5.649,2.824,11.174,5.28C263.376,568.75,263.376,568.812,263.437,568.812Zm13.323,2.7c0,.061-.307.246-.8.246-2.456.061-11.85-4.114-18.419-7.245a89.442,89.442,0,0,0,11.543,1.228c.675.368,3.438,1.965,5.035,3.008C276.454,570.347,276.822,571.268,276.761,571.513Zm3.868-8.166c-.8.614-10.315,2.395-26.217-.8-7.92-1.6-20.261-7.245-31.129-18.358a75.455,75.455,0,0,1-14.367-20.63A85.131,85.131,0,0,1,201.3,494.09a92.511,92.511,0,0,1,3.377-33.769c1.474.675,7.859,3.868,9.394,10.622.184.737.368,1.474.491,2.272,1.658,7.613,3.745,17.069,11.42,18.6a52.876,52.876,0,0,0,5.526,22.594,40.117,40.117,0,0,0,18.112,17.99c4.052,1.965,10.622,3.07,19.525,3.193,5.219.061,9.824-.246,11.481-.368a1.373,1.373,0,0,1-.184.614c-.43.921-1.842,2.21-5.649,3.438-1.289.368-2.64.737-4.052,1.044-5.894,1.351-12.525,2.886-14.674,9.762a5.991,5.991,0,0,0,.368,4.973c2.21,3.623,8.719,4.728,14.49,5.71,1.289.246,2.517.43,3.622.675,4.6.921,5.956,1.474,6.324,1.781A.466.466,0,0,1,280.629,563.347Z" transform="translate(-199.557 -428.545)"/></g><g transform="translate(28.598 190.504)"><g transform="translate(0.861 2.64)"><path class="a" d="M232.825,401.4s-18.358,8.043-19.033,31.374,26.156,36.655,26.156,36.655,18.419,10.99,30.146,13.876c11.666,2.886,25.419,4.912,25.664,2.64s-11.481-4.482-11.481-4.482a1.277,1.277,0,0,1,1.167-1.044c1.044-.123,10.99-1.289,12.955-1.719s6.078-2.088,5.71-3.008-4.912-1.719-4.912-1.719,7.675-1.289,7.306-3.009-5.833-1.842-9.762-1.842c-3.868,0-10.315,0-10.069-.921s5.4-1.842,5.4-1.842,15.1-3.807,14.306-5.035-3.684-.921-7.429-.675-12.955,1.719-13.2.553,2.395-4.236,2.395-4.236,6.631-6.754,2.886-8.35l-11.481,7.429-3.991,3.315a60.858,60.858,0,0,1-17.069-10.192c-7.429-6.631-9.394-11.236-9.394-11.236l.123-7.306s10.069-12.4,4.912-18.788A30.418,30.418,0,0,0,242.1,403Z" transform="translate(-213.78 -401.4)"/></g><g transform="translate(0.861 2.64)"><path class="b" d="M255.3,472.008c-21.059-6.447-34.628-17.621-35.734-38.067-1.044-18.788,16.577-29.839,19.34-31.436l-6.078-1.105s-18.358,8.043-19.033,31.374,26.156,36.655,26.156,36.655,18.419,10.99,30.146,13.876C270.033,483.3,276.357,478.393,255.3,472.008Z" transform="translate(-213.78 -401.4)"/></g><path class="j" d="M306.883,469.8c-.307-3.193-6.324-2.947-12.157-2.763-2.149.061-4.175.184-5.71.061a4.313,4.313,0,0,1-2.088-.43c1.044-.614,5.035-1.535,8.043-2.149,7.306-1.658,10.867-2.579,11.359-4.052a1.287,1.287,0,0,0-.246-1.228c-1.351-1.719-6.078-1.167-13.139-.184-2.763.43-6.57.982-7.306.614-.43-.86,2.149-3.807,3.438-5.157.614-.675,1.167-1.289,1.6-1.842,1.6-2.026,1.719-4.543.737-5.649a1.6,1.6,0,0,0-2.088-.307c-.8.43-3.5,2.395-6.631,4.666-3.07,2.21-7.245,5.219-8.289,5.771a59.885,59.885,0,0,1-19.77-13.446,23.943,23.943,0,0,1-4.973-6.631c1.842-2.272,13.262-15.718,28.182-19.77a.719.719,0,0,0,.491-.86.665.665,0,0,0-.675-.491h0a.726.726,0,0,0-.061-.614c-2.149-3.377-10.867-7-11.236-7.122H266.3c-.123-.061-11.727-3.807-15.841-5.157-4.052-1.351-12.894-5.894-12.955-5.894h0c-.061,0-.061-.061-.123-.061h-.43a39.542,39.542,0,0,0-10.745,6.14,35.765,35.765,0,0,0-13.323,22.533c-3.131,19.463,8.9,31.8,19.525,38.742A160.483,160.483,0,0,0,262.615,479.8c11.052,4.175,21.305,6.324,29.655,6.324h.614a4.861,4.861,0,0,0,2.824-.8,1.1,1.1,0,0,0,.246-.86c-.246-2.456-4.85-3.5-8.9-4.359-.737-.184-1.6-.368-2.272-.553,1.535-.246,4.175-.553,6.385-.8l2.026-.184c4.359-.491,9.21-1.781,10.56-2.886a1.373,1.373,0,0,0,.614-1.719c-.307-.8-1.351-1.228-2.7-1.474.123,0,.246-.061.368-.061C306.207,471.391,306.944,470.655,306.883,469.8Zm-3.684,4.6-.123.123c-1.105.86-5.526,2.149-9.885,2.64l-2.026.184c-6.385.675-8.1.921-8.534,1.6a.853.853,0,0,0-.123.675c.246.8,1.289,1.044,4.421,1.719,2.579.553,7.368,1.658,7.8,3.009a5.4,5.4,0,0,1-1.719.307h-.614c-19.279,0-43.777-11.481-59.065-21.428-18.665-12.157-20.63-27.015-18.972-37.33a34.316,34.316,0,0,1,12.832-21.673,43.146,43.146,0,0,1,5.833-3.868h.123c9.271.368,20.63,7.859,21.244,14.183.368,3.5-1.351,5.956-3.5,9.148-.307.43-.614.921-.982,1.412-1.781,2.64-3.5,6.692-2.088,10.99.123.307.43.921.491,1.105h0a27.392,27.392,0,0,0,5.464,7.368c10.376,10.376,20.139,13.753,20.568,13.876.061,0,.184.061.307,0,.491-.061,2.088-1.167,8.964-6.078,2.824-2.026,5.771-4.175,6.508-4.543.246-.123.307-.061.368,0,.43.491.491,2.272-.8,3.868-.43.491-.982,1.105-1.535,1.781-2.333,2.579-4.728,5.28-3.5,6.938.675.921,2.763.737,8.6-.123,4.3-.614,10.745-1.535,11.85-.368-.184.184-.8.675-3.315,1.412-1.965.614-4.543,1.167-7,1.719-6.078,1.351-8.6,1.965-9.148,3.008a.918.918,0,0,0-.061.8c.553,1.719,3.684,1.658,9.271,1.474,4.359-.184,10.192-.368,10.745,1.351-.921.737-6.14,2.026-11.052,2.579h0c-.43.061-.86.061-1.167.123a53.016,53.016,0,0,1-8.964-.123.678.678,0,1,0-.123,1.351c.123,0,2.395.246,5.464.246a32.75,32.75,0,0,0,3.438-.123h.368a10.106,10.106,0,0,0,1.289-.123h.061C300.252,473.233,302.831,473.909,303.2,474.4Z" transform="translate(-212.378 -397.1)"/></g><g transform="translate(192.163 208.1)"><g transform="translate(0.983 3.156)"><path class="a" d="M563.1,430.9a133.793,133.793,0,0,1,14.183,31.62c5.526,18.358-7.552,31.374-17.191,33.032-9.639,1.6-24.743-4.789-24.743-4.789s-17.56-7.122-21.8-7.245-19.463-1.044-19.831-1.167-7.675-1.474-7.122-3.008,6.017-1.289,6.017-1.289,6.324.921,6.447.246c.061-.675-4.666-2.088-4.666-2.088s-12.648-2.886-12.1-4.728c.614-1.842,5.587-1.289,5.587-1.289s-7.859-1.474-7.491-3.5c.368-2.088,4.973-1.9,4.973-1.9s15.1,2.21,15.288.43-13.078-4.728-13.078-4.728-6.815-2.149-5.71-3.622,6.263-.614,6.263-.614l13.937,3.07s2.272.614,2.579-.43-3.254-10.683-3.254-10.683.553-2.824,1.535-2.7c.982.184,4.3,3.868,4.3,3.868s6.815,9.885,13.385,12.4,16.332,5.219,21,4.666l12.525-10.008,3.684-9.762,4.789-9.639Z" transform="translate(-480.379 -430.9)"/></g><g transform="translate(82.962 1.56)"><path class="b" d="M628.82,461.516a195.1,195.1,0,0,0-13.63-33.216l-1.105,7.736-.184.614c2.395,3.622,10.683,17.437,11.788,31.743,1.167,15.9-4.359,20.077-4.359,20.077a5.357,5.357,0,0,0,.8.368C628.206,483.006,632.381,473.366,628.82,461.516Z" transform="translate(-613.9 -428.3)"/></g><path class="j" d="M578.5,465.263c-.43-4.973-2.272-11.6-5.342-19.095a156.367,156.367,0,0,0-9.946-20.077.674.674,0,0,0-1.167.675c6.815,11.6,14.122,28,15.1,38.619a28.605,28.605,0,0,1-6.815,20.507c-2.64,3.07-7.184,6.815-13.63,7.122-9.762.491-22.41-4.728-30.822-8.227-2.886-1.167-5.4-2.272-7.122-2.763-5.28-1.658-11.052-1.842-16.639-2.026-5.219-.184-10.131-.368-13.937-1.719a5.659,5.659,0,0,1-1.535-.86c.86-1.167,5.71-.614,8.35-.368,3.193.368,4.236.43,4.728-.246a.854.854,0,0,0,.061-.86c-.553-1.289-5.1-2.333-7.8-2.886-4.3-.8-8.657-2.456-9.639-3.438-.061-.061-.123-.123-.123-.184.368-.307,2.517-1.044,8.6,0h.061a64.777,64.777,0,0,0,9.455,1.105h0a.681.681,0,0,0,.675-.675.785.785,0,0,0-.675-.737,56.617,56.617,0,0,1-7.675-.8h0c-.368-.061-.86-.184-1.474-.246h0c-4.85-.921-10.008-2.7-10.806-3.438.675-1.719,7-.982,11.236-.491,5.342.614,8.473.921,9.394-.43a.862.862,0,0,0,.123-.86c-.368-.982-2.579-1.781-8.841-3.684-2.579-.8-5.219-1.6-7.306-2.395-2.64-.982-3.315-1.6-3.438-1.781.246-.246,1.289-.614,4.789-.061,2.64.368,5.894,1.167,8.719,1.781,5.833,1.351,7.982,1.781,8.78,1.167,1.658-1.228.246-4.543-1.105-7.736-.368-.8-.675-1.535-.921-2.149-.737-1.965-.061-3.622.491-3.929.061-.061.184-.061.368.123a21.318,21.318,0,0,1,1.412,1.719c2.21,2.763,6.324,7.92,9.824,10.56a44.414,44.414,0,0,0,26.278,8.6c1.289,0,2.579-.061,3.929-.184h0c6.447-1.105,10.745-3.131,12.832-6.078a8.761,8.761,0,0,0,1.351-6.754c-.737-4.175-2.824-5.464-2.886-5.526a.688.688,0,0,0-.921.184c-.061.061-3.561,4.236-7.429,5.464-6.324,1.9-13.2-.246-13.323-.246a.706.706,0,0,0-.86.86l3.07,10.806a43.313,43.313,0,0,1-21.244-8.1c-3.377-2.579-7.429-7.613-9.578-10.315-.614-.8-1.167-1.412-1.474-1.781a1.547,1.547,0,0,0-2.088-.368c-1.228.737-1.965,3.131-1.105,5.587.246.675.553,1.474.921,2.272.737,1.781,2.333,5.4,1.6,6.078-.737.246-4.6-.675-7.675-1.351-7.982-1.842-13.323-2.947-14.92-1.289a1.2,1.2,0,0,0-.307,1.167c.43,1.6,4.052,2.886,11.727,5.219a64.574,64.574,0,0,1,7.613,2.64c-1.289.368-5.157-.061-7.8-.368-6.017-.675-12.28-1.412-12.832,1.781-.123.8.553,1.658,4.543,2.947.123.061.246.061.368.123-1.351.123-2.456.491-2.824,1.289a1.4,1.4,0,0,0,.43,1.719c1.289,1.228,6.078,2.947,10.315,3.745a44.585,44.585,0,0,1,5.526,1.412c-.675-.061-1.474-.123-2.149-.184-4.175-.43-8.841-.982-9.824,1.289a1.2,1.2,0,0,0,0,.921c.368.86,1.9,1.535,2.395,1.719,3.991,1.412,9.026,1.6,14.306,1.781,5.526.184,11.236.368,16.27,1.965,1.719.553,4.175,1.535,7,2.7,8.1,3.377,20.139,8.35,30.024,8.35a10.869,10.869,0,0,0,1.412-.061c5.464-.246,10.5-2.886,14.613-7.613A29.6,29.6,0,0,0,578.5,465.263Z" transform="translate(-478.779 -425.759)"/></g><g transform="translate(164.906 123.694)"><g transform="translate(23.832 18.367)"><path class="a" d="M498.557,318.2s14.306,1.167,27.015,9.271,18.788,13.876,26.155,26.954a66,66,0,0,1,8.6,33.032c-.123,7.675-5.956,21.673-15.042,23.27-9.026,1.6-13.508.675-20.752-3.438s-14.92-16.148-14.92-16.148l-13.385-20.261s-5.28-6.508-8.35-7.8S473.2,353.2,473.2,353.2s1.719-2.272,6.078-1.167a108.943,108.943,0,0,1,10.56,3.561l4.482-22.779,1.167-3.684,2.395-5.526,1.289,1.289Z" transform="translate(-473.2 -318.2)"/></g><g transform="translate(49.189 18.367)"><path class="b" d="M514.684,322.068a76.708,76.708,0,0,1,38.926,19.4c18.174,17.253,22.594,45.926,15.472,63.056,0,0,10.929-8.964,6.263-29.962a73.944,73.944,0,0,0-27.506-42.979c-10.315-7.675-26.954-13.323-33.339-13.385C514.93,318.753,514.684,322.068,514.684,322.068Z" transform="translate(-514.5 -318.2)"/></g><g transform="translate(12.703 24.557)"><path class="a" d="M462.143,354.707a.46.46,0,0,1,.307-.061h.123l24.068,5.526,5.219-23.024L463.617,330.7,457.6,357.1Z" transform="translate(-456.049 -329.215)"/><path class="j" d="M492.3,335.353a.783.783,0,0,0-.43-.307L462.4,328.293a.654.654,0,0,0-.8.491l-6.508,28.427a.73.73,0,0,0,.246.675.644.644,0,0,0,.737.061L461.6,355l24.5,5.587h.123a.6.6,0,0,0,.614-.491l5.526-24.314A.378.378,0,0,0,492.3,335.353Zm-2.947,7.982-31.681,8.841,5.1-22.41,28.243,6.447Z" transform="translate(-455.074 -328.281)"/></g><g transform="translate(24.323 51.944)"><path class="a" d="M490.148,376.763s-8.964-3.5-10.253-3.807-5.587.43-5.894,1.719l10.683,7,2.517,1.105,2.026-3.008Z" transform="translate(-474 -372.887)"/></g><g transform="translate(15.874 22.498)"><path class="a" d="M492.879,326.262s-.246-1.6-3.438-.061-1.289.614-1.289.614-3.868-2.947-5.771-1.474a6.874,6.874,0,0,0-2.272,2.456s-3.929-.86-4.789-.43a10.635,10.635,0,0,0-2.088,1.719s-3.193-2.824-5.28-1.965-5.4,4.973-6.263,6.447c-.86,1.412-1.842,2.333-1.289,2.763s8.78-5.157,8.78-5.157l2.579.061s-3.991,5.526-3.684,6.815a1.323,1.323,0,0,0,1.842,1.105c.491-.246,8.534-7.061,8.534-7.061s-2.456,7.429-2.272,8.719.921,2.763,2.026,2.333,4.543-6.692,4.543-6.692-.491,4.421,1.167,4.3c1.719-.061,6.263-8.35,6.263-8.35l.368-.614Z" transform="translate(-460.238 -324.928)"/></g><path class="j" d="M543.007,355.893c-4.3-13.692-11.6-24.928-21.735-33.462a76.817,76.817,0,0,0-28.243-14.674c-9.394-2.763-23.822-3.622-34.26-3.807-9.639-.246-17.744.061-19.954.123l-3.07-15.227a.686.686,0,0,0-1.351.246l3.193,15.841a.737.737,0,0,0,.737.553c.061,0,9.21-.368,20.445-.123a193.152,193.152,0,0,1,24.129,1.781q0,1.105.184,4.236a2.292,2.292,0,0,0-1.9-.737,5.3,5.3,0,0,0-3.07,1.474c-.921-.737-4.114-2.947-6.631-.921a8.764,8.764,0,0,0-1.658,1.9,7.946,7.946,0,0,0-4.421-.737,6.258,6.258,0,0,0-2.21,1.9c-.921-.86-3.07-2.517-5.342-2.026-2.21.491-7.429,5.71-8.227,8.78a1.682,1.682,0,0,0,.368,1.781,1.3,1.3,0,0,0,.982.368c1.044,0,2.579-.8,4.789-2.456,1.965-1.474,3.807-3.07,3.868-3.131a.7.7,0,1,0-.921-1.044s-1.719,1.535-3.561,2.886c-3.193,2.395-4.114,2.333-4.236,2.272a3.409,3.409,0,0,1,.43-1.351c1.412-2.64,5.219-6.508,6.815-6.815,1.719-.368,3.438,1.044,4.175,1.719a27.257,27.257,0,0,0-1.781,2.456c-3.07,4.543-3.315,6.2-3.254,6.692a1.6,1.6,0,0,0,1.535,1.658c.86,0,2.026-.675,3.868-2.21,1.228-1.044,2.886-2.456,4.052-3.5-.307.982-.614,1.965-.8,2.824-.8,2.947-.737,4.973.184,5.956a1.945,1.945,0,0,0,1.412.553,2.088,2.088,0,0,0,.614-.061c1.167-.307,2.456-2.149,3.561-4.114a2.527,2.527,0,0,0,.614,1.412,1.949,1.949,0,0,0,1.719.737c.43-.061,1.105-.123,4.3-5.4,1.474-2.456,2.886-4.973,2.886-4.973a.674.674,0,0,0-1.167-.675c-2.333,4.3-5.342,9.148-6.2,9.7a.464.464,0,0,1-.43-.246c-.368-.43-.553-1.658.061-3.5,2.272-6.692,5.649-10.438,7.675-10.56h.061c1.535,0,3.008,3.868,4.789,8.35a84.843,84.843,0,0,0,7.8,16.086c2.395,3.561,5.833,8.35,9.639,13.2a.465.465,0,0,0,.123.246l.368.43c2.64,3.315,5.4,6.631,8.1,9.7,7.368,8.227,12.464,12.28,15.534,12.28a2.238,2.238,0,0,0,1.289-.307c.184-.061,3.807-1.535,2.149-8.1-1.6-6.385-8.411-8.289-15.227-9.7a24.615,24.615,0,0,1-10.99-5.035c-3.868-4.973-7.429-9.824-9.824-13.446-3.561-5.342-5.833-11.174-7.675-15.841a53.343,53.343,0,0,0-2.824-6.447c-.123-2.886-.246-4.973-.246-6.017a67.343,67.343,0,0,1,8.35,1.781A75.594,75.594,0,0,1,520.351,323.6c9.885,8.35,17.069,19.34,21.244,32.786,5.28,16.884,2.333,27.261-1.105,32.971-3.684,6.2-9.148,9.21-13.016,9.946a23.4,23.4,0,0,1-14.674-2.21c-6.2-3.07-12.034-8.841-17.253-17.069-12.1-18.972-16.148-25.112-21.305-28.489-3.868-2.517-12.648-7.982-15.1-9.455,3.008-3.254,11.911.8,15.288,2.7a.674.674,0,1,0,.675-1.167c-.553-.307-13.815-7.982-17.56-1.719a.693.693,0,0,0,.246.921c.123.061,11.236,6.938,15.718,9.885,4.912,3.193,8.964,9.271,20.875,28.059,5.4,8.473,11.42,14.367,17.805,17.621a25.7,25.7,0,0,0,11.236,2.763,24.681,24.681,0,0,0,4.236-.368c4.175-.8,10.008-3.991,13.937-10.56C548.226,379.224,546.016,365.533,543.007,355.893ZM461.9,322.738c-2.395,1.965-3.008,1.9-3.07,1.9a.844.844,0,0,1-.123-.368c-.061-.43.737-2.333,3.008-5.71,2.088-3.131,3.684-4.789,4.175-4.912a6.838,6.838,0,0,1,3.377.614,25.175,25.175,0,0,0-1.474,3.438.06.06,0,0,0-.061.061C467.61,317.765,464.111,320.9,461.9,322.738Zm10.929-2.272a.847.847,0,0,0-.184.246c-1.535,3.438-3.807,7.306-4.789,7.552-.491.123-.675-.061-.737-.123-.43-.43-.614-1.9.123-4.6.614-2.333,2.579-9.394,5.035-11.3,1.658-1.289,3.929.184,4.789.86A27.311,27.311,0,0,0,472.829,320.467Z" transform="translate(-434.385 -288.285)"/><path class="j" d="M454.286,381.446a.411.411,0,0,0-.43-.246.517.517,0,0,0-.43.246c-.307.614-3.07,6.017-1.6,8.227a2.414,2.414,0,0,0,2.088.982h.184a2.28,2.28,0,0,0,2.026-1.167C457.417,387.217,454.593,382.06,454.286,381.446Z" transform="translate(-440.953 -324.152)"/></g><g transform="translate(132.397 73.749)"><g transform="translate(6.055 8.511)"><path class="a" d="M422.92,224.975,426.6,247.2s-8.473,8.841-9.026,8.964-20.507-2.395-20.752-3.008-5.526-6.078-5.526-6.078l1.474-16.393a39.391,39.391,0,0,0,12.709-1.842c5.833-2.088,8.964-3.684,13.323-8.043A27.152,27.152,0,0,0,422.92,224.975Z" transform="translate(-391.3 -220.8)"/></g><g transform="translate(0 21.947)"><path class="a" d="M388.9,244.641s-3.991-2.395-5.587.675-.123,8.043,5.035,12.955C388.227,257.473,388.9,244.641,388.9,244.641Z" transform="translate(-381.926 -243.096)"/><path class="j" d="M387.8,258.535a.7.7,0,0,1-.491-.184c-5.1-4.85-7.061-10.131-5.157-13.753a3.27,3.27,0,0,1,2.149-1.781,6.5,6.5,0,0,1,4.421.86.674.674,0,1,1-.675,1.167,5.542,5.542,0,0,0-3.377-.737,2.268,2.268,0,0,0-1.289,1.105c-1.535,3.008.368,7.8,4.912,12.157a.746.746,0,0,1,0,.982A.7.7,0,0,1,387.8,258.535Z" transform="translate(-381.437 -242.684)"/></g><g transform="translate(39.185 21.398)"><g transform="translate(0.394 0.453)"><path class="a" d="M445.9,243.739s3.009-2.64,5.157-.123.921,7.92-3.315,11.359Z" transform="translate(-445.9 -242.528)"/></g><path class="j" d="M447.495,256.1a.7.7,0,0,1-.491-.184.746.746,0,0,1,0-.982c1.535-1.6,5.219-6.324,4.3-9.271a3.453,3.453,0,0,0-1.781-2.333,4.422,4.422,0,0,0-3.254.491.674.674,0,0,1-.675-1.167,5.541,5.541,0,0,1,4.421-.614,4.6,4.6,0,0,1,2.64,3.193c1.351,4.359-4.359,10.376-4.6,10.683A.99.99,0,0,1,447.495,256.1Z" transform="translate(-445.259 -241.79)"/></g><g transform="translate(27.299 24.044)"><ellipse class="b" cx="5.219" cy="2.763" rx="5.219" ry="2.763"/></g><g transform="translate(5.556 15.932)"><path class="j" d="M391.17,252.6h0a.659.659,0,0,1-.675-.737l1.228-18.358a.678.678,0,1,1,1.351.123l-1.228,18.358A.672.672,0,0,1,391.17,252.6Z" transform="translate(-390.487 -232.887)"/></g><g transform="translate(36.561 11.817)"><path class="j" d="M445.353,246.947a.719.719,0,0,1-.675-.553l-3.684-19.4a.686.686,0,0,1,1.351-.246l3.684,19.4a.694.694,0,0,1-.553.8Z" transform="translate(-440.985 -226.185)"/></g><path class="j" d="M425.931,257.149c-1.658-1.658-4.3-1.965-7.368-.86a19.275,19.275,0,0,0-4.114,2.333c-1.9,1.289-3.991,3.07-7.122,2.947-2.763-.061-4.543-1.228-6.938-1.781-4.236-.982-7.982-1.842-10.192.553-1.105,1.167-.982,2.272-.921,4.175.061,3.009.921,6.754,3.561,9.21,4.789,4.482,8.289,5.771,15.6,5.771,8.719,0,14-3.929,17.253-12.4C427.282,262.921,427.9,259.053,425.931,257.149Z" transform="translate(-384.449 -225.737)"/><g transform="translate(17.491 22.804)"><path class="j" d="M413.778,256.126a4.563,4.563,0,0,1-3.254-1.167,2.054,2.054,0,0,1-.491-2.088,2.638,2.638,0,0,1,2.272-1.719,2.573,2.573,0,0,0,1.167-.491c1.105-1.167-.123-4.482-.675-5.587a.7.7,0,0,1,.307-.921.717.717,0,0,1,.921.307c.246.491,2.395,5.035.43,7.122a4.337,4.337,0,0,1-1.842.921c-.737.184-1.105.307-1.289.8a.957.957,0,0,0,.184.737c.553.553,1.9.982,3.991.43a.7.7,0,1,1,.368,1.351A6.865,6.865,0,0,1,413.778,256.126Z" transform="translate(-409.926 -244.08)"/></g><g transform="translate(10.005 18.891)"><ellipse class="j" cx="3.929" cy="1.412" rx="3.929" ry="1.412" transform="matrix(0.978, -0.209, 0.209, 0.978, 0, 1.645)"/></g><g transform="translate(28.177 18.481)"><ellipse class="j" cx="1.412" cy="3.929" rx="1.412" ry="3.929" transform="translate(0 2.736) rotate(-75.594)"/></g><path class="j" d="M430.656,245c-3.315,0-5.956,1.535-5.956,3.438,0,1.965,2.64,3.438,5.956,3.438s5.956-1.535,5.956-3.438S434.032,245,430.656,245Zm0,5.526a11,11,0,0,1-1.474-.123,2.31,2.31,0,0,0,1.535-1.965,2.418,2.418,0,0,0-1.535-1.965,10.187,10.187,0,0,1,1.474-.123c2.7,0,4.543,1.105,4.543,2.088C435.26,249.421,433.357,250.526,430.656,250.526Z" transform="translate(-398.138 -221.631)"/><g transform="translate(9.371 24.044)"><ellipse class="b" cx="5.219" cy="2.763" rx="5.219" ry="2.763"/></g><path class="j" d="M401.456,245c-3.315,0-5.956,1.535-5.956,3.438,0,1.965,2.64,3.438,5.956,3.438s5.956-1.535,5.956-3.438S404.832,245,401.456,245Zm0,5.526a11,11,0,0,1-1.474-.123,2.31,2.31,0,0,0,1.535-1.965,2.418,2.418,0,0,0-1.535-1.965,10.187,10.187,0,0,1,1.474-.123c2.7,0,4.543,1.105,4.543,2.088C406.06,249.421,404.157,250.526,401.456,250.526Z" transform="translate(-386.866 -221.631)"/><g transform="translate(19.686 38.964)"><path class="b" d="M413.5,273.838l10.069-3.438s.737,3.991-2.088,5.4C417.552,277.829,413.5,273.838,413.5,273.838Z" transform="translate(-413.5 -270.4)"/></g><g transform="translate(5.687)"><g transform="translate(0 2.223)"><path class="a" d="M391.375,222.741a.631.631,0,0,1-.675-.614.688.688,0,0,1,.614-.737c16.577-1.351,22.042-10.376,22.042-10.5a.674.674,0,0,1,1.167.675c-.246.368-5.894,9.824-23.147,11.174Z" transform="translate(-390.7 -210.559)"/></g><g transform="translate(8.402)"><path class="a" d="M405.069,214.467a.669.669,0,0,1-.675-.614.694.694,0,0,1,.553-.8c4.543-.675,7.061-2.149,8.412-3.315a5.09,5.09,0,0,0,1.719-2.333.68.68,0,1,1,1.289.43c-.061.184-1.6,5.157-11.236,6.631Z" transform="translate(-404.385 -206.938)"/></g></g><g transform="translate(4.145 30.295)"><path class="a" d="M408.027,279.624c-7.306,0-10.806-1.289-15.6-5.771-3.807-3.5-4.6-9.885-4.114-14.613a.678.678,0,1,1,1.351.123c-.43,4.421.246,10.315,3.684,13.446,4.052,3.807,7,5.4,14.674,5.4,8.1,0,13.753-3.991,16.762-11.85a22.859,22.859,0,0,0,.737-9.271.663.663,0,1,1,1.289-.307,24.7,24.7,0,0,1-.8,10.131C422.824,275.326,416.745,279.624,408.027,279.624Z" transform="translate(-388.188 -256.281)"/></g></g></g></g></svg>